<svg xmlns="http://www.w3.org/2000/svg" viewBox="0 0 844 468" role="img" aria-label="Layout: Inside side wall, Back wall, Inside ceiling strips">
<defs><pattern id="hatch" width="8" height="8" patternUnits="userSpaceOnUse" patternTransform="rotate(45)"><rect width="8" height="8" class="hatchbg" fill="#EFE3C8"/><line x1="0" y1="0" x2="0" y2="8" class="hatchline"/></pattern></defs>
<style>
.sheet{fill:#EFE3C8;stroke:#6B5B45;stroke-width:1.5}
.waste{fill:url(#hatch)}
.piece{stroke:#3A3128;stroke-width:1}
.lab{font:600 12px 'IBM Plex Sans Condensed',Arial,sans-serif;fill:#1F1A14}
.dim{font:11px 'IBM Plex Mono',monospace;fill:#1F1A14}
.dimline{stroke:#6B5B45;stroke-width:.8;fill:none}
.axis{font:11px 'IBM Plex Mono',monospace;fill:#6B5B45}
.cut{stroke:#C0392B;stroke-width:2.2;stroke-dasharray:7 4}
.cutdot{fill:#C0392B}
.cutnum{font:700 11px 'IBM Plex Mono',monospace;fill:#fff}
.hatchline{stroke:#B9A887;stroke-width:1}
</style>
<rect class="sheet" x="56.0" y="44.0" width="768.0" height="384.0"/>
<rect class="waste" x="56.0" y="44.0" width="768.0" height="384.0"/>
<text class="axis" x="56.0" y="458.0">0</text>
<text class="axis" x="824.0" y="458.0" text-anchor="end">96″ (8 ft)</text>
<text class="axis" x="48.0" y="428.0" text-anchor="end">48″</text>
<text class="axis" x="48.0" y="54.0" text-anchor="end">0</text>
<rect class="piece" x="56.00" y="44.00" width="620.00" height="184.00" fill="#B8A6DD"/>
<rect class="piece" x="56.00" y="229.00" width="696.00" height="96.00" fill="#E3C86F"/>
<rect class="piece" x="56.00" y="326.00" width="580.00" height="102.00" fill="#8FC7BE"/>
<text class="lab" x="366.0" y="133.0" text-anchor="middle">Inside side wall 2/2</text>
<text class="dim" x="366.0" y="148.0" text-anchor="middle">77½″ × 23″</text>
<text class="lab" x="404.0" y="274.0" text-anchor="middle">Back wall 2/2</text>
<text class="dim" x="404.0" y="289.0" text-anchor="middle">87″ × 12″</text>
<text class="lab" x="346.0" y="374.0" text-anchor="middle">Inside ceiling 2/2</text>
<text class="dim" x="346.0" y="389.0" text-anchor="middle">72½″ × 12¾″</text>
<line class="dimline" x1="636.0" y1="40.0" x2="636.0" y2="44.0"/>
<text class="dim" x="636.0" y="38.0" text-anchor="middle">72½″</text>
<line class="dimline" x1="676.0" y1="27.0" x2="676.0" y2="44.0"/>
<text class="dim" x="676.0" y="25.0" text-anchor="middle">77½″</text>
<line class="dimline" x1="752.0" y1="40.0" x2="752.0" y2="44.0"/>
<text class="dim" x="752.0" y="38.0" text-anchor="middle">87″</text>
<line class="dimline" x1="50.0" y1="228.0" x2="56.0" y2="228.0"/>
<text class="dim" x="48.0" y="232.0" text-anchor="end">23″</text>
<line class="dimline" x1="50.0" y1="325.0" x2="56.0" y2="325.0"/>
<text class="dim" x="48.0" y="329.0" text-anchor="end">35⅛″</text>
</svg>