<svg xmlns="http://www.w3.org/2000/svg" viewBox="0 0 260 280" role="img" aria-label="Low-growing, pendent subshrub anchored in a sea-cliff crevice; multiple slender succulent branches trailing downward over basalt"><rect x="0" y="0" width="260" height="280" fill="#efece2"/><path d="M0 40 L260 20 L260 280 L0 280 Z" fill="#8a7960"/><path d="M0 40 L260 20 L260 60 L0 80 Z" fill="#7a6a54"/><path d="M110 40 L145 40 L152 55 L140 62 L118 60 L108 50 Z" fill="#4d4030" stroke="#2a2418" stroke-width="1.2"/><g stroke="#3f6a2a" stroke-width="2" fill="none" stroke-linecap="round"><path d="M125 55 C128 90 130 130 118 175 C112 200 100 215 88 225"/><path d="M128 56 C138 90 148 140 155 190 C158 215 155 235 145 250"/><path d="M132 55 C150 95 175 145 190 195"/><path d="M124 56 C110 90 92 130 78 170 C70 195 65 215 60 230"/><path d="M130 56 C135 105 138 160 138 210 C138 230 132 250 122 265"/></g><g fill="#557a3a" stroke="#3f6a2a" stroke-width="0.8"><ellipse cx="95" cy="190" rx="8" ry="2.5" transform="rotate(80 95 190)"/><ellipse cx="90" cy="205" rx="7" ry="2.2" transform="rotate(85 90 205)"/><ellipse cx="150" cy="200" rx="8" ry="2.5" transform="rotate(85 150 200)"/><ellipse cx="145" cy="220" rx="7" ry="2.2" transform="rotate(88 145 220)"/><ellipse cx="180" cy="185" rx="8" ry="2.5" transform="rotate(85 180 185)"/><ellipse cx="120" cy="230" rx="7" ry="2.2" transform="rotate(90 120 230)"/><ellipse cx="70" cy="200" rx="8" ry="2.5" transform="rotate(80 70 200)"/><ellipse cx="65" cy="220" rx="7" ry="2.2" transform="rotate(85 65 220)"/></g><text x="10" y="275" font-family="sans-serif" font-size="9" fill="#333">low pendent subshrub in cliff crevice; slender branches trail downward (Schiedea apokremnos)</text></svg>
