<svg xmlns="http://www.w3.org/2000/svg" width="760" height="520" viewBox="0 0 760 520" role="img">
<defs>
<style><![CDATA[
text{font-family:Inter,Arial,sans-serif;fill:#17201b} .title{font-size:26px;font-weight:800}.label{font-size:15px;font-weight:700}.small{font-size:12px}.tiny{font-size:10px}.muted{fill:#5f6f67}.box{fill:#f7faf8;stroke:#b8c8bf;stroke-width:1.2}.green{fill:#dff2df;stroke:#6aa56a}.amber{fill:#fff1cf;stroke:#c28b23}.red{fill:#ffe0dd;stroke:#c75b4e}.blue{fill:#dfeefd;stroke:#5b89c7}.violet{fill:#eee4ff;stroke:#8b70bf}.gray{fill:#edf0ef;stroke:#8c9892}.line{stroke:#698075;stroke-width:2;fill:none}]]></style>
</defs>
<rect width="760" height="520" fill="#fbfdfb"/>
<text x="36" y="46" class="title">Typed plant-evidence hypergraph</text>
<circle cx="370" cy="260" r="78" fill="#e8f5ec" stroke="#477b59" stroke-width="2"/>
<text x="318" y="250" class="label">Shared</text><text x="300" y="272" class="label">plant evidence</text>
<path d="M370 260 L170 180" class="line"/>
<rect x="75" y="138" width="190" height="84" rx="8" class="blue"/>
<text x="92" y="170" class="label">Track 1</text>
<text x="92" y="194" class="small">Reticulation and polyploidy</text>
<path d="M370 260 L370 110" class="line"/>
<rect x="275" y="68" width="190" height="84" rx="8" class="amber"/>
<text x="292" y="100" class="label">Track 2</text>
<text x="292" y="124" class="small">Ecological anachronisms</text>
<path d="M370 260 L570 180" class="line"/>
<rect x="475" y="138" width="190" height="84" rx="8" class="violet"/>
<text x="492" y="170" class="label">Track 3</text>
<text x="492" y="194" class="small">Convergent traits</text>
<path d="M370 260 L170 350" class="line"/>
<rect x="75" y="308" width="190" height="84" rx="8" class="green"/>
<text x="92" y="340" class="label">Track 4</text>
<text x="92" y="364" class="small">Crop wild relatives and climate</text>
<path d="M370 260 L370 420" class="line"/>
<rect x="275" y="378" width="190" height="84" rx="8" class="red"/>
<text x="292" y="410" class="label">Track 5</text>
<text x="292" y="434" class="small">Chemodiversity</text>
<path d="M370 260 L570 350" class="line"/>
<rect x="475" y="308" width="190" height="84" rx="8" class="gray"/>
<text x="492" y="340" class="label">Track 6</text>
<text x="492" y="364" class="small">Botanical model benchmark</text>
<text x="36" y="492" class="small muted">Each theme attaches typed evidence to the same accepted-name substrate; unsupported claims remain unpromoted.</text>
</svg>
